<svg width="32" height="32" viewBox="0 0 32 32" fill="none" xmlns="http://www.w3.org/2000/svg">
  <path
    d="M27.4285 5.71418C26.7976 5.71418 26.2856 6.22618 26.2856 6.85704V25.1428C26.2856 25.7736 26.7976 26.2856 27.4285 26.2856C28.0593 26.2856 28.5713 25.7736 28.5713 25.1428V6.85704C28.5713 6.22618 28.0593 5.71418 27.4285 5.71418ZM21.7142 25.1428C21.7142 25.7725 21.201 26.2856 20.5713 26.2856H11.4285C10.7988 26.2856 10.2856 25.7725 10.2856 25.1428V6.85704C10.2856 6.22732 10.7988 5.71418 11.4285 5.71418H20.5713C21.201 5.71418 21.7142 6.22732 21.7142 6.85704V25.1428ZM20.5713 3.42847H11.4285C9.53818 3.42847 7.9999 4.96675 7.9999 6.85704V25.1428C7.9999 27.033 9.53818 28.5713 11.4285 28.5713H20.5713C22.4616 28.5713 23.9999 27.033 23.9999 25.1428V6.85704C23.9999 4.96675 22.4616 3.42847 20.5713 3.42847ZM4.57132 5.71418C3.94047 5.71418 3.42847 6.22618 3.42847 6.85704V25.1428C3.42847 25.7736 3.94047 26.2856 4.57132 26.2856C5.20218 26.2856 5.71418 25.7736 5.71418 25.1428V6.85704C5.71418 6.22618 5.20218 5.71418 4.57132 5.71418Z"
    fill="#009FD9"></path>
</svg>