<svg viewBox="0 0 36 36" height="36" width="36" xmlns="http://www.w3.org/2000/svg">
  <!-- House shape -->
  <polygon points="18,4 4,18 8,18 8,30 28,30 28,18 32,18" fill="#4CAF50"></polygon>
  <!-- Roof accent -->
  <polygon points="18,4 2,18 34,18" fill="#66BB6A" opacity="0.8"></polygon>
  <!-- Wrench icon -->
  <path d="M23 22 l2 2 c0.4 0.4 0.4 1 0 1.4 l-1 1 c-0.4 0.4-1 0.4-1.4 0 l-2-2 l-1 1 c-0.4 0.4-1 0.4-1.4 0 l-1-1 c-0.4-0.4-0.4-1 0-1.4 l1-1 l-2-2 c-0.4-0.4-0.4-1 0-1.4 l1-1 c0.4-0.4 1-0.4 1.4 0 l2 2 l1-1 c0.4-0.4 1-0.4 1.4 0 l1 1 c0.4 0.4 0.4 1 0 1.4 l-1 1 l2 2 c0.4 0.4 0.4 1 0 1.4 l-1 1 c-0.4 0.4-1 0.4-1.4 0 l-2-2 z" fill="#FFFFFF"></path>
</svg>