<svg width="32" height="32" viewBox="0 0 32 32" fill="none" xmlns="http://www.w3.org/2000/svg">
  <path fill-rule="evenodd" clip-rule="evenodd"
    d="M2.28577 3.42856C2.28577 2.79738 2.79744 2.28571 3.42862 2.28571H9.14291C9.69898 2.28571 10.1743 2.68594 10.2691 3.23388L13.2756 20.6253C14.64 20.8362 15.805 21.6503 16.4898 22.7866L28.373 20.6914C28.9946 20.5818 29.5874 20.9969 29.697 21.6185C29.8066 22.2401 29.3915 22.8328 28.7699 22.9424L17.1405 24.9928C17.1421 25.0426 17.1429 25.0926 17.1429 25.1428C17.1429 27.6677 15.0964 29.7143 12.5715 29.7143C10.0466 29.7143 8.00005 27.6677 8.00005 25.1428C8.00005 23.172 9.24694 21.4926 10.9949 20.8505L8.18067 4.57142H3.42862C2.79744 4.57142 2.28577 4.05975 2.28577 3.42856ZM24.5942 7.77095C24.8425 7.94478 25.0116 8.21014 25.0643 8.50864L26.6528 17.5132C26.7625 18.1348 26.3475 18.7276 25.7259 18.8372C25.1043 18.9469 24.5115 18.5319 24.4019 17.9103L23.0119 10.0312L15.1339 11.4212C14.5124 11.5309 13.9196 11.1159 13.8099 10.4943C13.7002 9.87276 14.1152 9.27996 14.7368 9.17029L23.7402 7.58172C24.0387 7.52905 24.3459 7.59712 24.5942 7.77095ZM12.5715 22.8571C11.3089 22.8571 10.2858 23.8803 10.2858 25.1428C10.2858 26.4054 11.3089 27.4286 12.5715 27.4286C13.834 27.4286 14.8572 26.4054 14.8572 25.1428C14.8572 23.8803 13.834 22.8571 12.5715 22.8571Z"
    fill="#16a820"></path>
</svg>