<svg width="32" height="32" viewBox="0 0 32 32" fill="none" xmlns="http://www.w3.org/2000/svg">
  <path fill-rule="evenodd" clip-rule="evenodd"
    d="M12.5714 3.42858C12.5714 2.7974 12.0597 2.28572 11.4285 2.28572C10.7973 2.28572 10.2857 2.7974 10.2857 3.42858V9.14286H6.85709C6.22591 9.14286 5.71423 9.65454 5.71423 10.2857V16C5.71423 21.294 9.71454 25.6544 14.8571 26.2229V28.5714C14.8571 29.2026 15.3688 29.7143 15.9999 29.7143C16.6311 29.7143 17.1428 29.2026 17.1428 28.5714V26.2229C22.2854 25.6544 26.2857 21.294 26.2857 16V10.2857C26.2857 9.65454 25.774 9.14286 25.1428 9.14286H21.7142V3.42858C21.7142 2.7974 21.2026 2.28572 20.5714 2.28572C19.9402 2.28572 19.4285 2.7974 19.4285 3.42858V9.14286H12.5714V3.42858ZM15.9999 24C11.582 24 7.99995 20.418 7.99995 16V11.4286H23.9999V16C23.9999 20.418 20.4179 24 15.9999 24Z"
    fill="#009FD9"></path>
</svg>