<svg width="32" height="32" viewBox="0 0 32 32" fill="none" xmlns="http://www.w3.org/2000/svg">
  <path fill-rule="evenodd" clip-rule="evenodd"
    d="M5.88574 3.54285C5.88574 2.94324 6.37183 2.45714 6.97146 2.45714H25.0286C25.6282 2.45714 26.1143 2.94322 26.1143 3.54285V15.8857C26.1143 15.9243 26.1123 15.9624 26.1084 16C26.1123 16.0376 26.1143 16.0757 26.1143 16.1143V19.4286C26.1143 21.2274 24.656 22.6857 22.8572 22.6857H19.7311V26.1091C19.7311 26.5452 19.6502 27.0488 19.3803 27.5172C18.7353 28.6369 17.6533 29.5429 16 29.5429C14.3703 29.5429 13.2105 28.6616 12.5337 27.5285C12.2505 27.0544 12.1715 26.542 12.1715 26.1091V22.6857H9.14289C7.34401 22.6857 5.88574 21.2274 5.88574 19.4286V16.1143C5.88574 16.0757 5.88776 16.0376 5.89169 16C5.88776 15.9624 5.88574 15.9243 5.88574 15.8857V3.54285ZM7.8286 16.9714V19.4286C7.8286 20.1544 8.41703 20.7429 9.14289 20.7429H13.0286C13.6141 20.7429 14.1143 21.2137 14.1143 21.8273V26.1091C14.1143 26.3201 14.1546 26.4535 14.2016 26.5322C14.5943 27.1896 15.1746 27.6 16 27.6C16.8001 27.6 17.3116 27.2162 17.6969 26.5474C17.7484 26.458 17.7883 26.317 17.7883 26.1091V21.8273C17.7883 21.2137 18.2885 20.7429 18.874 20.7429H22.8572C23.583 20.7429 24.1715 20.1544 24.1715 19.4286V16.9714H7.8286ZM7.8286 15.0286H24.1715V4.4H7.8286V15.0286Z"
    fill="#16a820"></path>
</svg>