<svg width="32" height="32" viewBox="0 0 32 32" fill="none" xmlns="http://www.w3.org/2000/svg">
  <path
    d="M23.1953 18.622C23.6421 18.1751 24.3644 18.1751 24.8113 18.622L28.4364 22.2483C29.2615 23.0734 29.7153 24.1706 29.7153 25.342C29.7153 26.5134 29.2615 27.6117 28.4364 28.4357C27.6135 29.2597 26.5153 29.7134 25.3427 29.7134C24.1713 29.7134 23.073 29.2597 22.249 28.4357L17.4775 23.6643C17.0318 23.2174 17.0318 22.4951 17.4775 22.0483C17.9244 21.6014 18.6478 21.6014 19.0947 22.0483L23.865 26.8197C24.649 27.6037 26.0364 27.6037 26.8204 26.8197C27.2135 26.4277 27.4295 25.9031 27.4295 25.342C27.4295 24.782 27.2135 24.2574 26.8204 23.8643L23.1953 20.238C22.7484 19.7911 22.7484 19.0688 23.1953 18.622ZM17.0338 4.46119C19.5686 1.92519 23.3435 1.85319 25.6086 3.06804C25.9263 3.24062 26.1458 3.55147 26.1983 3.90919C26.2509 4.26576 26.1309 4.62805 25.8749 4.8829L22.9801 7.77776L23.2281 8.77205L24.2178 9.01776L27.1012 6.10576C27.3629 5.84176 27.7366 5.72519 28.1012 5.78119C28.4669 5.84176 28.7801 6.07719 28.9423 6.4109C30.3583 9.34005 29.8075 12.6978 27.5389 14.9652C25.3629 17.1446 22.4315 17.4726 20.2166 16.8269L8.80864 28.236L8.80635 28.2383L8.36978 28.6715C7.69892 29.3435 6.80406 29.7138 5.85092 29.7138C4.89892 29.7138 4.00406 29.3435 3.32978 28.6692C2.65664 27.996 2.28635 27.1012 2.28635 26.1492C2.28635 25.196 2.65664 24.3 3.32978 23.628L3.76064 23.1938L15.1606 11.7926C14.7172 10.2258 14.3481 7.1469 17.0338 4.46119ZM22.3378 4.56862C21.0829 4.56862 19.7138 5.01319 18.6498 6.07719C16.4886 8.23947 17.1481 10.7138 17.5321 11.6783C17.7001 12.1023 17.6006 12.5858 17.2772 12.9092L4.94921 25.2418C4.70464 25.4863 4.57206 25.8063 4.57206 26.1492C4.57206 26.4898 4.70464 26.8109 4.94578 27.0532C5.44635 27.5515 6.25892 27.5503 6.75606 27.0532L19.1092 14.7035C19.4395 14.3743 19.9343 14.276 20.3629 14.4589C21.5241 14.9492 24.0029 15.2692 25.9218 13.3492C27.0783 12.1949 27.5869 10.628 27.3846 9.06805L25.3846 11.0886C25.1001 11.3766 24.6863 11.4932 24.2943 11.3938L22.0086 10.8223C21.5995 10.7206 21.2795 10.3995 21.1778 9.99033L20.6063 7.70462C20.5092 7.3149 20.6223 6.90347 20.9069 6.62005L22.9241 4.60176C22.7332 4.58004 22.5366 4.56862 22.3378 4.56862ZM4.90646 2.61959C5.27789 2.25045 5.85389 2.17845 6.30304 2.44816L12.0173 5.87673C12.3613 6.08245 12.5716 6.45502 12.5716 6.85616V11.4276C12.5716 12.0596 12.0596 12.5704 11.4288 12.5704H6.85732C6.45618 12.5704 6.08361 12.3602 5.87789 12.0162L2.44932 6.30187C2.17846 5.85159 2.24932 5.27559 2.62075 4.9053L4.90646 2.61959ZM5.89161 4.86645L4.86761 5.89045L7.50532 10.2847H10.2859V7.50416L5.89161 4.86645Z"
    fill="#16a820"></path>
</svg>