<svg width="32" height="32" viewBox="0 0 32 32" fill="none" xmlns="http://www.w3.org/2000/svg"><path fill-rule="evenodd" clip-rule="evenodd" d="M15.3173 3.9794C18.018 2.00947 21.6046 1.78433 24.5304 3.16653C24.8668 3.32544 25.1047 3.63813 25.1683 4.00469C25.2318 4.37124 25.113 4.74579 24.8497 5.00864L21.0085 8.84375L21.5396 10.4343L23.1362 10.9659L26.9902 7.11799C27.2526 6.85598 27.6258 6.73758 27.9913 6.80042C28.3568 6.86326 28.669 7.09951 28.8289 7.43412C30.4383 10.8033 29.8585 14.9604 27.0601 17.7549C24.8525 19.96 21.7944 20.7822 18.9495 20.2454L10.964 28.219C10.964 28.219 10.964 28.2189 10.964 28.219C8.90349 30.2765 5.52163 30.21 3.54662 28.0203C1.64636 25.9132 2.00143 22.7245 3.89286 20.8358C3.89287 20.8358 3.89284 20.8359 3.89286 20.8358L11.7175 13.022C11.0988 9.74314 12.2928 6.18567 15.3173 3.9794ZM21.9239 4.69983C20.1114 4.34713 18.1827 4.71851 16.6642 5.82607C14.2396 7.59478 13.3848 10.5009 14.0756 13.0905C14.1807 13.4848 14.0677 13.9053 13.7789 14.1937L5.50798 22.4532C4.35944 23.6 4.26652 25.4056 5.24397 26.4894C6.33868 27.7031 8.20939 27.7394 9.3489 26.6016L17.7798 18.1832C18.0681 17.8954 18.4878 17.7827 18.8814 17.8876C21.1546 18.4929 23.6701 17.9104 25.4448 16.1376C27.1039 14.4809 27.7226 12.1793 27.3018 10.0368L24.252 13.0818C23.946 13.3873 23.4938 13.494 23.0835 13.3574L20.2755 12.4225C19.9342 12.3089 19.6664 12.0413 19.5525 11.7001L18.6164 8.89669C18.4792 8.48558 18.5863 8.03222 18.893 7.72599L21.9239 4.69983Z" fill="#009FD9"></path><path d="M10.3713 22.8675C10.3713 23.6038 9.77432 24.2008 9.03794 24.2008C8.30156 24.2008 7.70461 23.6038 7.70461 22.8675C7.70461 22.1311 8.30156 21.5341 9.03794 21.5341C9.77432 21.5341 10.3713 22.1311 10.3713 22.8675Z" fill="#009FD9"></path></svg>