<svg width="32" height="32" viewBox="0 0 32 32" fill="none" xmlns="http://www.w3.org/2000/svg">
  <path
    d="M22.9783 26.345C22.9451 26.953 22.4411 27.4284 21.8331 27.4284H10.1668C9.5577 27.4284 9.0537 26.953 9.02055 26.345L8.06513 9.14273H23.9337L22.9783 26.345ZM11.4286 5.71416C11.4286 5.08444 11.9406 4.5713 12.5714 4.5713H19.4286C20.0583 4.5713 20.5714 5.08444 20.5714 5.71416V6.85701H11.4286V5.71416ZM26.2857 6.85701H22.8571V5.71416C22.8571 3.82387 21.3188 2.28558 19.4286 2.28558H12.5714C10.68 2.28558 9.14284 3.82387 9.14284 5.71416V6.85701H5.71427C5.08227 6.85701 4.57141 7.36901 4.57141 7.99987C4.57141 8.63073 5.08227 9.14273 5.71427 9.14273H5.77484L6.73827 26.4707C6.83884 28.2902 8.34398 29.7142 10.1668 29.7142H21.8331C23.6548 29.7142 25.16 28.2902 25.2606 26.4719L26.224 9.14273H26.2857C26.9166 9.14273 27.4286 8.63073 27.4286 7.99987C27.4286 7.36901 26.9166 6.85701 26.2857 6.85701Z"
    fill="#16a820"></path>
</svg>